<svg id="Capa_1" enable-background="new 0 0 512 512" height="512" viewBox="0 0 512 512" width="512" xmlns="http://www.w3.org/2000/svg"><g><path d="m309.888 282.31c7.013-10.374 11.112-22.872 11.112-36.31v-45.459l13.613-20.42c4.179-6.267 6.387-13.562 6.387-21.094 0-20.968-17.059-38.027-38.027-38.027h-66.973c-24.813 0-45 20.187-45 45v80c0 13.438 4.099 25.936 11.112 36.31-34.74 6.534-61.112 37.081-61.112 73.69v20c0 8.284 6.716 15 15 15h200c8.284 0 15-6.716 15-15v-20c0-36.609-26.372-67.156-61.112-73.69zm-88.888-116.31c0-8.271 6.729-15 15-15h66.973c4.427 0 8.027 3.601 8.027 8.027 0 1.591-.466 3.13-1.348 4.453l-11.679 17.52h-76.973zm0 45h70v35c0 19.299-15.701 35-35 35s-35-15.701-35-35zm120 150h-170v-5c0-24.813 20.187-45 45-45h80c24.813 0 45 20.187 45 45z" fill="#fff"/><path d="m497 241h-15.502c-3.562-54.721-26.561-105.676-65.691-144.807-39.131-39.13-90.086-62.129-144.807-65.691v-15.502c0-8.284-6.716-15-15-15s-15 6.716-15 15v15.502c-54.721 3.562-105.676 26.561-144.807 65.692-39.13 39.13-62.129 90.085-65.691 144.806h-15.502c-8.284 0-15 6.716-15 15s6.716 15 15 15h15.502c3.562 54.721 26.561 105.676 65.692 144.807 39.131 39.13 90.086 62.129 144.807 65.692v15.501c0 8.284 6.716 15 15 15s15-6.716 15-15v-15.502c54.721-3.562 105.676-26.561 144.807-65.692 39.13-39.131 62.129-90.086 65.691-144.807h15.501c8.284 0 15-6.716 15-15s-6.716-14.999-15-14.999zm-60 30h14.431c-7.31 96.143-84.289 173.121-180.431 180.431v-14.431c0-8.284-6.716-15-15-15s-15 6.716-15 15v14.431c-96.143-7.31-173.121-84.288-180.431-180.431h14.431c8.284 0 15-6.716 15-15s-6.716-15-15-15h-14.431c7.31-96.143 84.288-173.121 180.431-180.431v14.431c0 8.284 6.716 15 15 15s15-6.716 15-15v-14.431c96.143 7.31 173.121 84.288 180.431 180.431h-14.431c-8.284 0-15 6.716-15 15s6.716 15 15 15z" fill="#fff"/></g></svg>
